<svg width="21" height="14" viewBox="0 0 21 14" fill="none" xmlns="http://www.w3.org/2000/svg">
<path fill-rule="evenodd" clip-rule="evenodd" d="M20.5104 12.3327H20.0237C19.4334 12.3327 19.4561 11.7338 19.4561 11.7338C19.4561 11.7338 19.4522 11.7352 19.4513 11.7352C19.1227 8.21837 16.9703 5.2801 14.0129 4.00035C14.0045 3.99586 13.9987 3.99136 13.9902 3.98722C13.5106 3.76396 13.4993 3.26388 13.4993 3.26388V1.92158C13.4993 1.05689 12.8411 0.35498 12.0278 0.35498H9.39026C8.57755 0.35498 7.91841 1.05689 7.91841 1.92158V3.46329C7.9051 3.59254 7.83334 3.80716 7.51969 3.94851C7.49956 3.95784 7.4843 3.96683 7.46806 3.97477C4.48574 5.23724 2.30769 8.18001 1.96838 11.7106L1.96448 11.7093C1.96448 11.7093 1.91578 12.3327 1.35601 12.3327H0.991697C0.876106 12.3355 0.415039 12.3787 0.415039 12.8846V13.2893C0.421858 13.4628 0.492641 13.8758 1.02644 13.8758H20.3682C20.8971 13.8758 20.989 13.5116 21.0026 13.3291V12.9171C21.0026 12.4305 20.676 12.3448 20.5104 12.3327ZM12.437 2.84867C12.4341 2.97377 12.3893 3.43584 11.8448 3.38193C11.8149 3.37881 11.7951 3.37985 11.775 3.38089C11.4249 3.33492 11.0717 3.30417 10.7093 3.30417C10.2973 3.30417 9.89432 3.34667 9.49689 3.40646C9.46929 3.40508 9.43747 3.40646 9.39819 3.41165C8.96602 3.46625 8.89036 3.17802 8.87997 3.03011V2.31645C8.87997 1.76487 9.29948 1.31767 9.81802 1.31767H11.4993C12.0175 1.31767 12.4373 1.76487 12.4373 2.31645V2.84867H12.437ZM16.4608 12.324H15.7176C15.3374 12.324 15.2406 12.1066 15.2186 11.9546C15.2186 11.9183 15.2169 11.8685 15.215 11.8098C15.1897 11.0156 14.9987 8.2902 13.5831 6.13436L13.5899 6.13401L13.4262 5.83887C13.4087 5.73035 13.4149 5.57242 13.6649 5.79394C14.8919 6.91921 16.7057 9.06227 16.8099 11.9878C16.8031 12.1146 16.7501 12.324 16.4608 12.324Z" fill="#EA454C"/>
</svg>
