<svg width="31" height="23" viewBox="0 0 31 23" fill="none" xmlns="http://www.w3.org/2000/svg">
<path d="M6.25146 8.13574C6.25146 7.03117 7.1469 6.13574 8.25146 6.13574H22.2515C23.356 6.13574 24.2515 7.03117 24.2515 8.13574V18.1357C24.2515 19.2403 25.1469 20.1357 26.2515 20.1357H28.2515C29.356 20.1357 30.2515 19.2403 30.2515 18.1357V5.13574C30.2515 2.37432 28.0129 0.135742 25.2515 0.135742H5.25147C2.49004 0.135742 0.251465 2.37432 0.251465 5.13574V18.1357C0.251465 19.2403 1.1469 20.1357 2.25146 20.1357H4.25146C5.35603 20.1357 6.25146 19.2403 6.25146 18.1357V8.13574Z" fill="#FB8A22"/>
<path d="M7.25146 19.1357C7.25146 20.7926 8.59461 22.1357 10.2515 22.1357H20.2515C21.9083 22.1357 23.2515 20.7926 23.2515 19.1357V8.13574C23.2515 7.58346 22.8038 7.13574 22.2515 7.13574H8.25146C7.69918 7.13574 7.25146 7.58346 7.25146 8.13574V19.1357Z" fill="#FB8A22"/>
</svg>
