<svg width="15" height="16" viewBox="0 0 15 16" fill="none" xmlns="http://www.w3.org/2000/svg">
<path d="M9.21029 5.35528H9.21713M7.49981 14.2498H3.05257C2.5082 14.2498 1.98612 14.0335 1.60118 13.6486C1.21625 13.2636 1 12.7416 1 12.1972V3.9869C1 3.44252 1.21625 2.92044 1.60118 2.53551C1.98612 2.15058 2.5082 1.93433 3.05257 1.93433H11.2629C11.8072 1.93433 12.3293 2.15058 12.7143 2.53551C13.0992 2.92044 13.3154 3.44252 13.3154 3.9869V8.43414" stroke="black" stroke-opacity="0.5" stroke-width="2" stroke-linecap="round" stroke-linejoin="round"/>
<path d="M1 10.8289L4.42095 7.40794C5.05588 6.79696 5.8386 6.79696 6.47353 7.40794L9.21029 10.1447" stroke="black" stroke-opacity="0.5" stroke-width="2" stroke-linecap="round" stroke-linejoin="round"/>
<path d="M8.52649 9.46048L9.21068 8.77629C9.66909 8.33567 10.2028 8.21252 10.7036 8.40683M9.89487 12.8814H14M11.9474 10.8289V14.934" stroke="black" stroke-opacity="0.5" stroke-width="2" stroke-linecap="round" stroke-linejoin="round"/>
</svg>
