<svg width="26" height="26" viewBox="0 0 26 26" fill="none" xmlns="http://www.w3.org/2000/svg">
<path d="M12.9474 7H3.68421C2.75789 7 2 7.69545 2 8.54545V18.5909C2 19.0159 2.37895 19.3636 2.84211 19.3636C3.30526 19.3636 3.68421 19.0159 3.68421 18.5909V9.31818C3.68421 8.89318 4.06316 8.54545 4.52632 8.54545H12.9474C13.4105 8.54545 13.7895 8.19773 13.7895 7.77273C13.7895 7.34773 13.4105 7 12.9474 7ZM13.4442 10.5468L17.5116 14.2791C17.8232 14.565 18 14.9591 18 15.3686V22.4545C18 23.3045 17.2421 24 16.3158 24H7.04421C6.11789 24 5.36842 23.3045 5.36842 22.4545L5.37684 11.6364C5.37684 10.7864 6.12632 10.0909 7.05263 10.0909H12.2484C12.6947 10.0909 13.1242 10.2532 13.4442 10.5468ZM12.9474 15.5H16.7368L12.1053 11.25V14.7273C12.1053 15.1523 12.4842 15.5 12.9474 15.5Z" fill="#EA454C"/>
</svg>
