<svg width="26" height="25" viewBox="0 0 26 25" fill="none" xmlns="http://www.w3.org/2000/svg">
<g clip-path="url(#clip0_1165_3637)">
<path d="M4.00204 21.5549C4.00275 21.6061 4.01355 21.6567 4.03382 21.7037C4.05408 21.7508 4.08341 21.7934 4.12014 21.8291C4.15687 21.8648 4.20027 21.8929 4.24786 21.9118C4.29546 21.9308 4.34632 21.9401 4.39754 21.9394H22.601C22.6523 21.9402 22.7032 21.9309 22.7509 21.912C22.7985 21.8931 22.842 21.865 22.8788 21.8292C22.9155 21.7935 22.9449 21.7509 22.9652 21.7038C22.9855 21.6568 22.9963 21.6062 22.997 21.5549V21.0959C23.006 20.9574 23.0245 20.2674 22.5695 19.5039C22.2825 19.0224 21.866 18.6069 21.3315 18.2679C20.685 17.8579 19.8625 17.5614 18.8675 17.3829C18.3624 17.312 17.8614 17.2146 17.3665 17.0909C16.0505 16.7549 15.9355 16.4574 15.9345 16.4544C15.9268 16.4251 15.9157 16.3967 15.9015 16.3699C15.8905 16.3149 15.864 16.1059 15.915 15.5464C16.044 14.1249 16.8065 13.2849 17.419 12.6099C17.612 12.3974 17.7945 12.1959 17.935 11.9989C18.5415 11.1489 18.5975 10.1814 18.6 10.1214C18.6023 10.0151 18.5876 9.90909 18.5565 9.8074C18.4965 9.6224 18.385 9.5074 18.303 9.4224C18.2837 9.40292 18.2648 9.38291 18.2465 9.3624C18.2405 9.3554 18.2245 9.3364 18.239 9.2409C18.2881 8.93325 18.3219 8.62338 18.3405 8.3124C18.3685 7.8114 18.39 7.0624 18.2605 6.3329C18.2416 6.19355 18.2128 6.05571 18.1745 5.9204C18.0385 5.41806 17.8185 4.98973 17.5145 4.6354C17.462 4.5779 16.188 3.2354 12.4895 2.9604C11.978 2.9224 11.4725 2.9429 10.9745 2.9684C10.8273 2.97171 10.6807 2.9898 10.537 3.0224C10.155 3.1209 10.053 3.3629 10.0265 3.4984C9.98204 3.7234 10.06 3.8974 10.1115 4.0134C10.119 4.0299 10.1285 4.0504 10.112 4.1044C10.0265 4.2374 9.89104 4.3574 9.75354 4.4709C9.71354 4.5044 8.78654 5.3044 8.73554 6.3489C8.59804 7.1434 8.60804 8.3809 8.77054 9.2364C8.78054 9.2839 8.79404 9.3539 8.77154 9.4014C8.59654 9.5579 8.39854 9.7354 8.39904 10.1404C8.40104 10.1814 8.45754 11.1484 9.06404 11.9989C9.20404 12.1959 9.38654 12.3969 9.57904 12.6094L9.58004 12.6099C10.1925 13.2849 10.955 14.1249 11.084 15.5459C11.1345 16.1059 11.108 16.3144 11.0975 16.3699C11.0832 16.3967 11.072 16.425 11.064 16.4544C11.0635 16.4574 10.949 16.7539 9.63904 17.0894C8.88304 17.2829 8.13904 17.3819 8.11654 17.3844C7.14954 17.5479 6.33204 17.8374 5.68654 18.2449C5.15404 18.5814 4.73654 18.9984 4.44654 19.4834C3.98254 20.2584 3.99504 20.9644 4.00154 21.0934L4.00204 21.5549Z" fill="#FB8A22" stroke="#FB8A22" stroke-width="2" stroke-linejoin="round"/>
</g>
<defs>
<clipPath id="clip0_1165_3637">
<rect width="25" height="25" fill="white" transform="translate(0.5)"/>
</clipPath>
</defs>
</svg>
