<svg xmlns="http://www.w3.org/2000/svg" xmlns:xlink="http://www.w3.org/1999/xlink" width="500" zoomAndPan="magnify" viewBox="0 0 375 157.92" height="200" preserveAspectRatio="xMidYMid meet" version="1.0"><defs><g/><clipPath id="41c20fd6ac"><path d="M 0.09375 0 L 374.902344 0 L 374.902344 149.925781 L 0.09375 149.925781 Z M 0.09375 0 " clip-rule="nonzero"/></clipPath><clipPath id="1bc8ed9773"><path d="M 0.09375 0 L 150.019531 0 L 150.019531 149.925781 L 0.09375 149.925781 Z M 0.09375 0 " clip-rule="nonzero"/></clipPath><clipPath id="b4cae154ea"><path d="M 56 28 L 83 28 L 83 76.902344 L 56 76.902344 Z M 56 28 " clip-rule="nonzero"/></clipPath><clipPath id="40df487022"><rect x="0" width="182" y="0" height="77"/></clipPath><clipPath id="b06a01c4d9"><rect x="0" width="143" y="0" height="21"/></clipPath></defs><g clip-path="url(#41c20fd6ac)"><path fill="#ffffff" d="M 0.09375 0 L 374.90625 0 L 374.90625 149.925781 L 0.09375 149.925781 Z M 0.09375 0 " fill-opacity="1" fill-rule="nonzero"/><path fill="#ffffff" d="M 0.09375 0 L 374.90625 0 L 374.90625 149.925781 L 0.09375 149.925781 Z M 0.09375 0 " fill-opacity="1" fill-rule="nonzero"/></g><g clip-path="url(#1bc8ed9773)"><path fill="#fb8a22" d="M 75.082031 -0.0234375 C 116.484375 -0.0234375 150.042969 33.539062 150.042969 74.9375 C 150.042969 106.53125 130.496094 133.5625 102.828125 144.59375 L 101.734375 120.972656 L 101.734375 120.929688 C 101.792969 116.253906 103.765625 112.574219 108.144531 110.722656 L 108.707031 110.5 L 108.734375 110.488281 L 108.769531 110.472656 L 108.828125 110.453125 C 112.046875 109.148438 114.671875 107.390625 116.460938 104.347656 C 118.695312 100.558594 119.125 95.511719 119.125 91.214844 C 119.125 82.953125 116.691406 73.199219 112.496094 66.058594 C 109.515625 60.984375 104.8125 55.847656 98.460938 55.847656 C 92.113281 55.847656 87.410156 60.984375 84.429688 66.058594 C 80.230469 73.199219 77.796875 82.953125 77.796875 91.214844 C 77.796875 95.515625 78.230469 100.566406 80.460938 104.347656 C 82.269531 107.410156 84.925781 109.171875 88.164062 110.476562 C 88.253906 110.511719 88.34375 110.554688 88.433594 110.589844 L 88.457031 110.589844 L 88.738281 110.707031 C 93.132812 112.554688 95.128906 116.195312 95.1875 120.929688 L 95.1875 120.972656 L 93.960938 147.503906 C 87.925781 149.070312 81.601562 149.902344 75.082031 149.902344 C 68.332031 149.902344 61.792969 149.003906 55.566406 147.335938 L 54.417969 122.492188 L 54.417969 122.4375 C 54.476562 117.652344 56.519531 113.875 61.003906 111.980469 L 61.574219 111.753906 L 61.59375 111.746094 L 61.617188 111.738281 L 61.679688 111.710938 C 64.84375 110.433594 67.421875 108.710938 69.179688 105.726562 C 71.382812 101.984375 71.804688 96.972656 71.804688 92.730469 C 71.804688 92.320312 71.789062 91.90625 71.765625 91.496094 C 71.75 91.257812 71.730469 91.023438 71.699219 90.792969 L 71.660156 90.445312 L 71.722656 90.210938 L 69 58.503906 L 66.148438 58.507812 L 65.902344 92.015625 L 61.152344 92.488281 L 58.332031 54.613281 L 55.242188 54.800781 L 54.628906 92.957031 L 52.949219 93.027344 C 52.597656 93.042969 52.246094 93.046875 51.898438 93.046875 C 51.546875 93.046875 51.191406 93.042969 50.839844 93.027344 L 49.167969 92.957031 L 48.308594 54.800781 L 45.21875 54.621094 L 42.644531 92.496094 L 37.890625 92.023438 L 37.648438 58.507812 L 34.78125 58.507812 L 31.097656 90.226562 L 31.160156 90.453125 L 31.117188 90.789062 C 31.09375 91.023438 31.074219 91.257812 31.058594 91.496094 C 31.035156 91.90625 31.019531 92.320312 31.019531 92.730469 C 31.019531 96.972656 31.441406 101.984375 33.644531 105.726562 C 35.414062 108.738281 38.023438 110.457031 41.207031 111.738281 C 41.28125 111.769531 41.359375 111.796875 41.429688 111.828125 L 41.453125 111.828125 L 41.785156 111.96875 C 46.277344 113.859375 48.339844 117.59375 48.40625 122.4375 L 48.40625 122.492188 L 47.382812 144.628906 C 19.679688 133.617188 0.101562 106.566406 0.101562 74.941406 C 0.121094 33.535156 33.679688 -0.0234375 75.082031 -0.0234375 " fill-opacity="1" fill-rule="evenodd"/></g><g transform="matrix(1, 0, 0, 1, 168, 38)"><g clip-path="url(#40df487022)"><g fill="#fb8a22" fill-opacity="1"><g transform="translate(0.49916, 51.771644)"><g><path d="M 28.734375 -44.734375 C 30.367188 -44.734375 31.617188 -44.070312 32.484375 -42.75 C 33.347656 -41.4375 33.941406 -39.710938 34.265625 -37.578125 C 34.585938 -35.453125 34.710938 -33.109375 34.640625 -30.546875 C 34.566406 -27.992188 34.40625 -25.488281 34.15625 -23.03125 C 33.90625 -20.570312 33.65625 -18.347656 33.40625 -16.359375 C 33.164062 -14.378906 32.992188 -12.894531 32.890625 -11.90625 C 32.640625 -8.925781 32.316406 -6.40625 31.921875 -4.34375 C 31.523438 -2.289062 31.203125 -1.210938 30.953125 -1.109375 C 30.753906 -1.015625 30.269531 -1.039062 29.5 -1.1875 C 28.738281 -1.332031 28.007812 -1.539062 27.3125 -1.8125 C 26.613281 -2.09375 26.265625 -2.40625 26.265625 -2.75 C 26.265625 -2.90625 26.375 -3.675781 26.59375 -5.0625 C 26.820312 -6.445312 27.097656 -8.242188 27.421875 -10.453125 C 27.742188 -12.660156 28.066406 -15.054688 28.390625 -17.640625 C 28.710938 -20.222656 29 -22.800781 29.25 -25.375 C 29.5 -27.957031 29.632812 -30.3125 29.65625 -32.4375 C 29.675781 -34.570312 29.5625 -36.285156 29.3125 -37.578125 C 29.070312 -38.867188 28.601562 -39.515625 27.90625 -39.515625 C 27.207031 -39.515625 26.265625 -38.757812 25.078125 -37.25 C 23.890625 -35.738281 22.597656 -33.738281 21.203125 -31.25 C 19.816406 -28.769531 18.40625 -26.101562 16.96875 -23.25 C 15.53125 -20.40625 14.175781 -17.601562 12.90625 -14.84375 C 11.644531 -12.09375 10.554688 -9.6875 9.640625 -7.625 C 8.722656 -5.570312 8.085938 -4.125 7.734375 -3.28125 C 7.191406 -2.03125 6.695312 -1.171875 6.25 -0.703125 C 5.800781 -0.234375 5.550781 -0.0234375 5.5 -0.078125 C 5.5 -0.0234375 5.5 0 5.5 0 C 5.5 0 5.148438 0 4.453125 0 C 3.765625 0 3.035156 -0.0625 2.265625 -0.1875 C 1.492188 -0.3125 1.035156 -0.570312 0.890625 -0.96875 C 0.992188 -2.007812 1.15625 -3.609375 1.375 -5.765625 C 1.601562 -7.921875 1.898438 -10.398438 2.265625 -13.203125 C 2.640625 -16.015625 3.023438 -18.921875 3.421875 -21.921875 C 3.816406 -24.921875 4.203125 -27.769531 4.578125 -30.46875 C 4.953125 -33.175781 5.273438 -35.535156 5.546875 -37.546875 C 5.816406 -39.554688 6.023438 -40.929688 6.171875 -41.671875 C 6.523438 -43.460938 6.882812 -44.519531 7.25 -44.84375 C 7.625 -45.164062 8.035156 -45.328125 8.484375 -45.328125 C 10.222656 -45.273438 11.289062 -45.132812 11.6875 -44.90625 C 12.082031 -44.6875 12.179688 -44.109375 11.984375 -43.171875 C 11.878906 -42.722656 11.726562 -41.789062 11.53125 -40.375 C 11.332031 -38.957031 11.109375 -37.269531 10.859375 -35.3125 C 10.617188 -33.351562 10.359375 -31.296875 10.078125 -29.140625 C 9.804688 -26.984375 9.535156 -24.910156 9.265625 -22.921875 C 8.992188 -20.929688 8.757812 -19.21875 8.5625 -17.78125 C 8.363281 -16.34375 8.210938 -15.378906 8.109375 -14.890625 C 8.410156 -15.929688 8.921875 -17.367188 9.640625 -19.203125 C 10.359375 -21.035156 11.25 -23.066406 12.3125 -25.296875 C 13.382812 -27.535156 14.578125 -29.796875 15.890625 -32.078125 C 17.203125 -34.359375 18.578125 -36.453125 20.015625 -38.359375 C 21.453125 -40.273438 22.914062 -41.816406 24.40625 -42.984375 C 25.894531 -44.148438 27.335938 -44.734375 28.734375 -44.734375 Z M 28.734375 -44.734375 "/></g></g></g><g fill="#fb8a22" fill-opacity="1"><g transform="translate(41.723247, 51.771644)"><g><path d="M 15.328125 -5.5 C 15.679688 -5.351562 15.753906 -5.054688 15.546875 -4.609375 C 14.753906 -3.273438 13.625 -2.109375 12.15625 -1.109375 C 10.695312 -0.117188 9.125 0.472656 7.4375 0.671875 C 5.75 0.867188 4.140625 0.492188 2.609375 -0.453125 C 1.171875 -1.335938 0.0546875 -2.585938 -0.734375 -4.203125 C -1.535156 -5.816406 -1.785156 -8.285156 -1.484375 -11.609375 C -1.191406 -14.285156 -0.4375 -16.453125 0.78125 -18.109375 C 2 -19.773438 3.425781 -20.96875 5.0625 -21.6875 C 6.695312 -22.40625 8.257812 -22.691406 9.75 -22.546875 C 10.84375 -22.492188 11.894531 -22.171875 12.90625 -21.578125 C 13.925781 -20.984375 14.644531 -20.078125 15.0625 -18.859375 C 15.488281 -17.648438 15.304688 -16.050781 14.515625 -14.0625 C 14.066406 -12.925781 13.222656 -11.8125 11.984375 -10.71875 C 10.742188 -9.625 9.40625 -8.703125 7.96875 -7.953125 C 6.53125 -7.210938 5.265625 -6.769531 4.171875 -6.625 C 4.316406 -5.976562 4.5625 -5.394531 4.90625 -4.875 C 5.257812 -4.351562 5.757812 -3.96875 6.40625 -3.71875 C 7.25 -3.375 8.226562 -3.5 9.34375 -4.09375 C 10.457031 -4.6875 11.484375 -5.53125 12.421875 -6.625 C 12.671875 -6.914062 12.945312 -6.960938 13.25 -6.765625 Z M 10.796875 -18.3125 C 10.296875 -18.65625 9.535156 -18.628906 8.515625 -18.234375 C 7.503906 -17.835938 6.550781 -17.101562 5.65625 -16.03125 C 4.757812 -14.96875 4.238281 -13.59375 4.09375 -11.90625 C 4.09375 -11.757812 4.078125 -11.625 4.046875 -11.5 C 4.023438 -11.375 4.015625 -11.238281 4.015625 -11.09375 C 5.804688 -11.6875 7.304688 -12.476562 8.515625 -13.46875 C 9.734375 -14.457031 10.550781 -15.421875 10.96875 -16.359375 C 11.394531 -17.304688 11.335938 -17.957031 10.796875 -18.3125 Z M 10.796875 -18.3125 "/></g></g></g><g clip-path="url(#b4cae154ea)"><g fill="#fb8a22" fill-opacity="1"><g transform="translate(62.409705, 51.771644)"><g><path d="M 12.28125 -22.40625 C 13.019531 -22.40625 13.910156 -22.304688 14.953125 -22.109375 C 15.992188 -21.910156 16.960938 -21.460938 17.859375 -20.765625 C 18.753906 -20.066406 19.398438 -18.984375 19.796875 -17.515625 C 20.191406 -16.054688 20.164062 -14.0625 19.71875 -11.53125 C 19.519531 -10.289062 19.0625 -8.960938 18.34375 -7.546875 C 17.625 -6.140625 16.691406 -4.828125 15.546875 -3.609375 C 14.410156 -2.390625 13.070312 -1.484375 11.53125 -0.890625 C 10 -0.296875 8.3125 -0.195312 6.46875 -0.59375 C 4.976562 -0.894531 3.765625 -1.515625 2.828125 -2.453125 C 2.328125 0.816406 1.816406 4.0625 1.296875 7.28125 C 0.773438 10.507812 0.304688 13.460938 -0.109375 16.140625 C -0.535156 18.828125 -0.867188 20.972656 -1.109375 22.578125 C -1.359375 24.191406 -1.484375 25 -1.484375 25 C -1.484375 25 -1.832031 25 -2.53125 25 C -3.226562 25 -3.945312 24.9375 -4.6875 24.8125 C -5.4375 24.695312 -5.882812 24.4375 -6.03125 24.03125 C -5.976562 22.988281 -5.800781 21.3125 -5.5 19 C -5.207031 16.695312 -4.847656 14.03125 -4.421875 11 C -4.003906 7.976562 -3.554688 4.832031 -3.078125 1.5625 C -2.609375 -1.707031 -2.148438 -4.816406 -1.703125 -7.765625 C -1.265625 -10.722656 -0.882812 -13.28125 -0.5625 -15.4375 C -0.238281 -17.601562 0 -19.054688 0.15625 -19.796875 C 0.5 -21.578125 0.851562 -22.628906 1.21875 -22.953125 C 1.59375 -23.273438 2.003906 -23.4375 2.453125 -23.4375 C 4.191406 -23.394531 5.257812 -23.257812 5.65625 -23.03125 C 6.050781 -22.8125 6.148438 -22.226562 5.953125 -21.28125 C 5.898438 -21.082031 5.847656 -20.832031 5.796875 -20.53125 C 5.753906 -20.238281 5.707031 -19.921875 5.65625 -19.578125 C 6.695312 -20.460938 7.835938 -21.164062 9.078125 -21.6875 C 10.316406 -22.207031 11.382812 -22.445312 12.28125 -22.40625 Z M 14.890625 -12.953125 C 15.328125 -15.179688 15.070312 -16.71875 14.125 -17.5625 C 13.1875 -18.40625 12.195312 -18.628906 11.15625 -18.234375 C 10.664062 -18.085938 10.125 -17.753906 9.53125 -17.234375 C 8.9375 -16.710938 8.289062 -16.050781 7.59375 -15.25 C 7.238281 -14.601562 6.875 -13.757812 6.5 -12.71875 C 6.132812 -11.675781 5.90625 -10.4375 5.8125 -9 C 5.707031 -7.269531 5.851562 -6.101562 6.25 -5.5 C 6.644531 -4.90625 7.113281 -4.617188 7.65625 -4.640625 C 8.207031 -4.671875 8.65625 -4.738281 9 -4.84375 C 9.394531 -4.988281 9.988281 -5.367188 10.78125 -5.984375 C 11.582031 -6.609375 12.378906 -7.503906 13.171875 -8.671875 C 13.960938 -9.835938 14.535156 -11.265625 14.890625 -12.953125 Z M 14.890625 -12.953125 "/></g></g></g></g><g fill="#fb8a22" fill-opacity="1"><g transform="translate(87.039983, 51.771644)"><g><path d="M 38.25 -12.578125 C 38.75 -12.273438 38.847656 -11.90625 38.546875 -11.46875 C 38.253906 -10.820312 37.734375 -9.875 36.984375 -8.625 C 36.242188 -7.382812 35.273438 -6.109375 34.078125 -4.796875 C 32.890625 -3.484375 31.5 -2.367188 29.90625 -1.453125 C 28.320312 -0.535156 26.515625 -0.078125 24.484375 -0.078125 C 22.347656 -0.078125 20.445312 -0.695312 18.78125 -1.9375 C 17.125 -3.175781 15.875 -4.835938 15.03125 -6.921875 C 13.894531 -5.179688 12.53125 -3.59375 10.9375 -2.15625 C 9.351562 -0.71875 7.59375 0 5.65625 0 C 4.269531 -0.0507812 2.914062 -0.410156 1.59375 -1.078125 C 0.28125 -1.742188 -0.734375 -2.804688 -1.453125 -4.265625 C -2.171875 -5.734375 -2.332031 -7.660156 -1.9375 -10.046875 C -1.488281 -12.722656 -0.71875 -14.816406 0.375 -16.328125 C 1.46875 -17.847656 2.742188 -18.941406 4.203125 -19.609375 C 5.671875 -20.273438 7.171875 -20.585938 8.703125 -20.546875 C 9.742188 -20.492188 10.6875 -20.269531 11.53125 -19.875 C 11.488281 -21.113281 11.523438 -22.414062 11.640625 -23.78125 C 11.765625 -25.144531 11.925781 -26.59375 12.125 -28.125 C 12.875 -33.039062 13.992188 -36.988281 15.484375 -39.96875 C 16.972656 -42.945312 18.632812 -45.101562 20.46875 -46.4375 C 22.300781 -47.78125 24.132812 -48.453125 25.96875 -48.453125 C 27.8125 -48.453125 29.425781 -47.929688 30.8125 -46.890625 C 31.65625 -46.296875 32.210938 -45.253906 32.484375 -43.765625 C 32.753906 -42.273438 32.554688 -40.175781 31.890625 -37.46875 C 31.222656 -34.769531 29.847656 -31.375 27.765625 -27.28125 C 25.679688 -23.1875 22.65625 -18.234375 18.6875 -12.421875 C 19.476562 -10.242188 20.234375 -8.421875 20.953125 -6.953125 C 21.671875 -5.492188 22.875 -4.765625 24.5625 -4.765625 C 25.65625 -4.765625 26.722656 -5.125 27.765625 -5.84375 C 28.804688 -6.5625 29.769531 -7.441406 30.65625 -8.484375 C 31.550781 -9.523438 32.332031 -10.550781 33 -11.5625 C 33.675781 -12.582031 34.1875 -13.390625 34.53125 -13.984375 C 34.632812 -14.179688 34.804688 -14.304688 35.046875 -14.359375 C 35.296875 -14.410156 35.519531 -14.382812 35.71875 -14.28125 Z M 17.484375 -27.765625 C 17.234375 -26.523438 17.082031 -25.207031 17.03125 -23.8125 C 16.988281 -22.425781 17.015625 -21.035156 17.109375 -19.640625 C 21.523438 -27.484375 24.550781 -33.390625 26.1875 -37.359375 C 27.832031 -41.328125 28.257812 -43.609375 27.46875 -44.203125 C 27.113281 -44.453125 26.5625 -44.523438 25.8125 -44.421875 C 25.070312 -44.328125 24.226562 -43.78125 23.28125 -42.78125 C 22.34375 -41.789062 21.363281 -40.101562 20.34375 -37.71875 C 19.332031 -35.34375 18.378906 -32.023438 17.484375 -27.765625 Z M 5.875 -4.765625 C 6.519531 -4.910156 7.507812 -5.664062 8.84375 -7.03125 C 10.1875 -8.394531 11.476562 -10.144531 12.71875 -12.28125 C 12.675781 -12.53125 12.613281 -12.773438 12.53125 -13.015625 C 12.457031 -13.265625 12.398438 -13.515625 12.359375 -13.765625 C 12.054688 -14.515625 11.65625 -15.109375 11.15625 -15.546875 C 10.664062 -15.992188 10.046875 -16.21875 9.296875 -16.21875 C 8.015625 -16.21875 6.765625 -15.609375 5.546875 -14.390625 C 4.328125 -13.179688 3.445312 -11.3125 2.90625 -8.78125 C 2.601562 -7.039062 2.8125 -5.882812 3.53125 -5.3125 C 4.25 -4.75 5.03125 -4.566406 5.875 -4.765625 Z M 5.875 -4.765625 "/></g></g></g><g fill="#fb8a22" fill-opacity="1"><g transform="translate(122.162316, 51.771644)"><g><path d="M 1.40625 -19.046875 C 2.25 -19.148438 3.15625 -19.164062 4.125 -19.09375 C 5.09375 -19.019531 5.601562 -18.707031 5.65625 -18.15625 C 5.65625 -17.90625 5.578125 -17.144531 5.421875 -15.875 C 5.273438 -14.613281 5.078125 -13.101562 4.828125 -11.34375 C 4.585938 -9.582031 4.328125 -7.859375 4.046875 -6.171875 C 3.773438 -4.484375 3.53125 -3.054688 3.3125 -1.890625 C 3.09375 -0.734375 2.929688 -0.128906 2.828125 -0.078125 C 2.628906 -0.0234375 2.171875 0 1.453125 0 C 0.734375 0 0.0664062 -0.109375 -0.546875 -0.328125 C -1.171875 -0.554688 -1.484375 -0.894531 -1.484375 -1.34375 C -1.484375 -1.789062 -1.429688 -2.582031 -1.328125 -3.71875 C -1.234375 -4.863281 -1.125 -6.15625 -1 -7.59375 C -0.875 -9.03125 -0.75 -10.414062 -0.625 -11.75 C -0.507812 -13.09375 -0.410156 -14.210938 -0.328125 -15.109375 C -0.253906 -16.003906 -0.21875 -16.453125 -0.21875 -16.453125 C -0.21875 -16.453125 -0.191406 -16.648438 -0.140625 -17.046875 C -0.0976562 -17.441406 0.046875 -17.863281 0.296875 -18.3125 C 0.546875 -18.757812 0.914062 -19.003906 1.40625 -19.046875 Z M 5.0625 -22.40625 C 4.5625 -22.15625 3.953125 -22.066406 3.234375 -22.140625 C 2.515625 -22.210938 1.894531 -22.492188 1.375 -22.984375 C 0.851562 -23.484375 0.617188 -24.179688 0.671875 -25.078125 C 0.722656 -25.472656 0.859375 -25.929688 1.078125 -26.453125 C 1.296875 -26.972656 1.691406 -27.367188 2.265625 -27.640625 C 2.835938 -27.921875 3.617188 -27.863281 4.609375 -27.46875 C 5.503906 -27.164062 6.023438 -26.640625 6.171875 -25.890625 C 6.328125 -25.148438 6.265625 -24.429688 5.984375 -23.734375 C 5.710938 -23.046875 5.40625 -22.601562 5.0625 -22.40625 Z M 5.0625 -22.40625 "/></g></g></g><g fill="#fb8a22" fill-opacity="1"><g transform="translate(132.654372, 51.771644)"><g><path d="M 14.890625 -19.5 C 15.679688 -19.394531 16.5 -19.03125 17.34375 -18.40625 C 18.1875 -17.789062 18.867188 -16.863281 19.390625 -15.625 C 19.910156 -14.382812 20.070312 -12.773438 19.875 -10.796875 C 19.675781 -7.867188 19.375 -5.375 18.96875 -3.3125 C 18.570312 -1.25 18.253906 -0.171875 18.015625 -0.078125 C 17.765625 0.0234375 17.253906 0.015625 16.484375 -0.109375 C 15.710938 -0.234375 14.976562 -0.429688 14.28125 -0.703125 C 13.59375 -0.972656 13.25 -1.285156 13.25 -1.640625 C 13.25 -1.835938 13.332031 -2.40625 13.5 -3.34375 C 13.675781 -4.289062 13.875 -5.410156 14.09375 -6.703125 C 14.320312 -7.992188 14.5 -9.257812 14.625 -10.5 C 14.75 -11.738281 14.773438 -12.800781 14.703125 -13.6875 C 14.628906 -14.582031 14.390625 -15.082031 13.984375 -15.1875 C 13.492188 -15.332031 12.6875 -14.894531 11.5625 -13.875 C 10.445312 -12.863281 9.257812 -11.550781 8 -9.9375 C 6.738281 -8.320312 5.570312 -6.644531 4.5 -4.90625 C 3.4375 -3.175781 2.679688 -1.664062 2.234375 -0.375 C 2.179688 -0.125 2.054688 -0.0507812 1.859375 -0.15625 C 1.859375 -0.15625 1.507812 -0.140625 0.8125 -0.109375 C 0.125 -0.0859375 -0.601562 -0.148438 -1.375 -0.296875 C -2.144531 -0.441406 -2.601562 -0.710938 -2.75 -1.109375 C -2.601562 -3.148438 -2.367188 -5.296875 -2.046875 -7.546875 C -1.722656 -9.804688 -1.363281 -11.988281 -0.96875 -14.09375 C -0.570312 -16.207031 -0.25 -18.007812 0 -19.5 C 0.300781 -21.28125 0.648438 -22.332031 1.046875 -22.65625 C 1.441406 -22.976562 1.863281 -23.140625 2.3125 -23.140625 C 4.039062 -23.097656 5.101562 -22.960938 5.5 -22.734375 C 5.90625 -22.515625 6.007812 -21.929688 5.8125 -20.984375 C 5.5625 -19.691406 5.285156 -18.289062 4.984375 -16.78125 C 4.691406 -15.269531 4.421875 -13.796875 4.171875 -12.359375 C 4.960938 -13.691406 5.960938 -14.925781 7.171875 -16.0625 C 8.390625 -17.207031 9.671875 -18.113281 11.015625 -18.78125 C 12.359375 -19.457031 13.648438 -19.695312 14.890625 -19.5 Z M 14.890625 -19.5 "/></g></g></g><g fill="#fb8a22" fill-opacity="1"><g transform="translate(158.475226, 51.771644)"><g><path d="M 15.328125 -5.5 C 15.679688 -5.351562 15.753906 -5.054688 15.546875 -4.609375 C 14.753906 -3.273438 13.625 -2.109375 12.15625 -1.109375 C 10.695312 -0.117188 9.125 0.472656 7.4375 0.671875 C 5.75 0.867188 4.140625 0.492188 2.609375 -0.453125 C 1.171875 -1.335938 0.0546875 -2.585938 -0.734375 -4.203125 C -1.535156 -5.816406 -1.785156 -8.285156 -1.484375 -11.609375 C -1.191406 -14.285156 -0.4375 -16.453125 0.78125 -18.109375 C 2 -19.773438 3.425781 -20.96875 5.0625 -21.6875 C 6.695312 -22.40625 8.257812 -22.691406 9.75 -22.546875 C 10.84375 -22.492188 11.894531 -22.171875 12.90625 -21.578125 C 13.925781 -20.984375 14.644531 -20.078125 15.0625 -18.859375 C 15.488281 -17.648438 15.304688 -16.050781 14.515625 -14.0625 C 14.066406 -12.925781 13.222656 -11.8125 11.984375 -10.71875 C 10.742188 -9.625 9.40625 -8.703125 7.96875 -7.953125 C 6.53125 -7.210938 5.265625 -6.769531 4.171875 -6.625 C 4.316406 -5.976562 4.5625 -5.394531 4.90625 -4.875 C 5.257812 -4.351562 5.757812 -3.96875 6.40625 -3.71875 C 7.25 -3.375 8.226562 -3.5 9.34375 -4.09375 C 10.457031 -4.6875 11.484375 -5.53125 12.421875 -6.625 C 12.671875 -6.914062 12.945312 -6.960938 13.25 -6.765625 Z M 10.796875 -18.3125 C 10.296875 -18.65625 9.535156 -18.628906 8.515625 -18.234375 C 7.503906 -17.835938 6.550781 -17.101562 5.65625 -16.03125 C 4.757812 -14.96875 4.238281 -13.59375 4.09375 -11.90625 C 4.09375 -11.757812 4.078125 -11.625 4.046875 -11.5 C 4.023438 -11.375 4.015625 -11.238281 4.015625 -11.09375 C 5.804688 -11.6875 7.304688 -12.476562 8.515625 -13.46875 C 9.734375 -14.457031 10.550781 -15.421875 10.96875 -16.359375 C 11.394531 -17.304688 11.335938 -17.957031 10.796875 -18.3125 Z M 10.796875 -18.3125 "/></g></g></g></g></g><g transform="matrix(1, 0, 0, 1, 180, 111)"><g clip-path="url(#b06a01c4d9)"><g fill="#fb8a22" fill-opacity="1"><g transform="translate(0.441916, 15.444288)"><g><path d="M 4.703125 0.15625 C 4.023438 0.15625 3.414062 0.0664062 2.875 -0.109375 C 2.34375 -0.296875 1.894531 -0.539062 1.53125 -0.84375 C 1.175781 -1.144531 0.910156 -1.472656 0.734375 -1.828125 L 1.4375 -2.671875 L 1.609375 -2.671875 C 2.273438 -1.546875 3.304688 -0.984375 4.703125 -0.984375 C 5.515625 -0.984375 6.117188 -1.148438 6.515625 -1.484375 C 6.910156 -1.828125 7.109375 -2.300781 7.109375 -2.90625 C 7.109375 -3.257812 7.039062 -3.554688 6.90625 -3.796875 C 6.78125 -4.046875 6.566406 -4.257812 6.265625 -4.4375 C 5.972656 -4.613281 5.566406 -4.765625 5.046875 -4.890625 L 3.78125 -5.203125 C 2.84375 -5.429688 2.148438 -5.789062 1.703125 -6.28125 C 1.265625 -6.78125 1.046875 -7.40625 1.046875 -8.15625 C 1.046875 -8.695312 1.179688 -9.175781 1.453125 -9.59375 C 1.734375 -10.007812 2.140625 -10.335938 2.671875 -10.578125 C 3.203125 -10.816406 3.832031 -10.9375 4.5625 -10.9375 C 5.375 -10.9375 6.054688 -10.820312 6.609375 -10.59375 C 7.171875 -10.363281 7.617188 -10.019531 7.953125 -9.5625 L 7.34375 -8.71875 L 7.15625 -8.71875 C 6.84375 -9.101562 6.472656 -9.382812 6.046875 -9.5625 C 5.628906 -9.738281 5.132812 -9.828125 4.5625 -9.828125 C 3.820312 -9.828125 3.257812 -9.679688 2.875 -9.390625 C 2.5 -9.097656 2.3125 -8.695312 2.3125 -8.1875 C 2.3125 -7.695312 2.445312 -7.304688 2.71875 -7.015625 C 3 -6.734375 3.472656 -6.515625 4.140625 -6.359375 L 5.4375 -6.046875 C 6.476562 -5.804688 7.234375 -5.429688 7.703125 -4.921875 C 8.171875 -4.410156 8.40625 -3.757812 8.40625 -2.96875 C 8.40625 -2.363281 8.269531 -1.828125 8 -1.359375 C 7.726562 -0.890625 7.3125 -0.519531 6.75 -0.25 C 6.195312 0.0195312 5.515625 0.15625 4.703125 0.15625 Z M 4.703125 0.15625 "/></g></g></g><g fill="#fb8a22" fill-opacity="1"><g transform="translate(10.308909, 15.444288)"><g><path d="M 7.75 -3.78125 L 2.15625 -3.78125 C 2.195312 -2.800781 2.4375 -2.078125 2.875 -1.609375 C 3.3125 -1.148438 3.914062 -0.921875 4.6875 -0.921875 C 5.257812 -0.921875 5.722656 -1.023438 6.078125 -1.234375 C 6.429688 -1.441406 6.707031 -1.765625 6.90625 -2.203125 L 7.0625 -2.203125 L 7.84375 -1.734375 C 7.613281 -1.148438 7.238281 -0.6875 6.71875 -0.34375 C 6.195312 -0.0078125 5.519531 0.15625 4.6875 0.15625 C 3.894531 0.15625 3.21875 0 2.65625 -0.3125 C 2.09375 -0.625 1.65625 -1.09375 1.34375 -1.71875 C 1.039062 -2.34375 0.890625 -3.125 0.890625 -4.0625 C 0.890625 -4.988281 1.050781 -5.765625 1.375 -6.390625 C 1.695312 -7.023438 2.132812 -7.5 2.6875 -7.8125 C 3.25 -8.125 3.890625 -8.28125 4.609375 -8.28125 C 5.648438 -8.28125 6.460938 -7.984375 7.046875 -7.390625 C 7.628906 -6.804688 7.925781 -5.941406 7.9375 -4.796875 C 7.9375 -4.335938 7.925781 -4.03125 7.90625 -3.875 Z M 6.75 -4.796875 C 6.726562 -5.660156 6.535156 -6.285156 6.171875 -6.671875 C 5.804688 -7.066406 5.285156 -7.265625 4.609375 -7.265625 C 3.890625 -7.265625 3.328125 -7.066406 2.921875 -6.671875 C 2.523438 -6.273438 2.28125 -5.648438 2.1875 -4.796875 Z M 6.75 -4.796875 "/></g></g></g><g fill="#fb8a22" fill-opacity="1"><g transform="translate(19.608521, 15.444288)"><g><path d="M 1.421875 0 L 1.421875 -8.125 L 2.5625 -8.125 L 2.5625 -6.859375 L 2.71875 -6.8125 C 3.09375 -7.738281 3.800781 -8.203125 4.84375 -8.203125 C 5.40625 -8.203125 5.820312 -8.101562 6.09375 -7.90625 L 5.78125 -6.890625 L 5.640625 -6.859375 C 5.335938 -7.003906 5.003906 -7.078125 4.640625 -7.078125 C 3.984375 -7.078125 3.476562 -6.832031 3.125 -6.34375 C 2.78125 -5.863281 2.609375 -5.078125 2.609375 -3.984375 L 2.609375 0 Z M 1.421875 0 "/></g></g></g><g fill="#fb8a22" fill-opacity="1"><g transform="translate(26.520715, 15.444288)"><g><path d="M 5.140625 0 L 3.5 0 L 0.390625 -8.125 L 1.6875 -8.125 L 4.25 -1.375 L 4.421875 -1.375 L 6.953125 -8.125 L 8.21875 -8.125 Z M 5.140625 0 "/></g></g></g><g fill="#fb8a22" fill-opacity="1"><g transform="translate(35.768747, 15.444288)"><g><path d="M 2.015625 -9.703125 C 1.765625 -9.703125 1.554688 -9.78125 1.390625 -9.9375 C 1.234375 -10.09375 1.15625 -10.296875 1.15625 -10.546875 C 1.15625 -10.796875 1.234375 -11 1.390625 -11.15625 C 1.554688 -11.3125 1.765625 -11.390625 2.015625 -11.390625 C 2.273438 -11.390625 2.484375 -11.3125 2.640625 -11.15625 C 2.796875 -11 2.875 -10.796875 2.875 -10.546875 C 2.875 -10.296875 2.796875 -10.09375 2.640625 -9.9375 C 2.484375 -9.78125 2.273438 -9.703125 2.015625 -9.703125 Z M 1.421875 0 L 1.421875 -8.125 L 2.609375 -8.125 L 2.609375 0 Z M 1.421875 0 "/></g></g></g><g fill="#fb8a22" fill-opacity="1"><g transform="translate(40.433525, 15.444288)"><g><path d="M 1.421875 0 L 1.421875 -8.125 L 2.5625 -8.125 L 2.5625 -6.859375 L 2.71875 -6.8125 C 2.988281 -7.289062 3.332031 -7.65625 3.75 -7.90625 C 4.164062 -8.15625 4.675781 -8.28125 5.28125 -8.28125 C 6.257812 -8.28125 6.96875 -8.03125 7.40625 -7.53125 C 7.84375 -7.03125 8.0625 -6.265625 8.0625 -5.234375 L 8.0625 0 L 6.875 0 L 6.875 -5.203125 C 6.875 -5.691406 6.8125 -6.082031 6.6875 -6.375 C 6.5625 -6.675781 6.363281 -6.894531 6.09375 -7.03125 C 5.832031 -7.164062 5.488281 -7.234375 5.0625 -7.234375 C 4.332031 -7.234375 3.738281 -6.988281 3.28125 -6.5 C 2.832031 -6.019531 2.609375 -5.242188 2.609375 -4.171875 L 2.609375 0 Z M 1.421875 0 "/></g></g></g><g fill="#fb8a22" fill-opacity="1"><g transform="translate(50.425783, 15.444288)"><g><path d="M 4.1875 3.453125 C 2.90625 3.453125 1.96875 3.238281 1.375 2.8125 C 0.789062 2.382812 0.5 1.816406 0.5 1.109375 C 0.5 0.648438 0.632812 0.285156 0.90625 0.015625 C 1.175781 -0.253906 1.578125 -0.445312 2.109375 -0.5625 L 2.109375 -0.71875 C 1.859375 -0.863281 1.671875 -1.03125 1.546875 -1.21875 C 1.421875 -1.414062 1.359375 -1.644531 1.359375 -1.90625 C 1.359375 -2.21875 1.457031 -2.472656 1.65625 -2.671875 C 1.851562 -2.867188 2.148438 -3.019531 2.546875 -3.125 L 2.546875 -3.28125 C 1.660156 -3.75 1.21875 -4.507812 1.21875 -5.5625 C 1.21875 -6.09375 1.335938 -6.5625 1.578125 -6.96875 C 1.816406 -7.382812 2.160156 -7.707031 2.609375 -7.9375 C 3.054688 -8.164062 3.578125 -8.28125 4.171875 -8.28125 C 4.859375 -8.28125 5.425781 -8.128906 5.875 -7.828125 C 6.050781 -8.023438 6.179688 -8.234375 6.265625 -8.453125 C 6.347656 -8.671875 6.40625 -8.914062 6.4375 -9.1875 L 6.59375 -9.28125 L 7.578125 -9.046875 C 7.523438 -8.640625 7.398438 -8.289062 7.203125 -8 C 7.003906 -7.71875 6.722656 -7.484375 6.359375 -7.296875 L 6.359375 -7.140625 C 6.617188 -6.929688 6.8125 -6.6875 6.9375 -6.40625 C 7.0625 -6.132812 7.125 -5.816406 7.125 -5.453125 C 7.125 -4.941406 7 -4.476562 6.75 -4.0625 C 6.507812 -3.65625 6.164062 -3.332031 5.71875 -3.09375 C 5.269531 -2.863281 4.753906 -2.75 4.171875 -2.75 C 4.097656 -2.75 3.972656 -2.753906 3.796875 -2.765625 C 3.609375 -2.773438 3.46875 -2.78125 3.375 -2.78125 C 3.113281 -2.78125 2.90625 -2.710938 2.75 -2.578125 C 2.601562 -2.453125 2.53125 -2.285156 2.53125 -2.078125 C 2.53125 -1.816406 2.609375 -1.625 2.765625 -1.5 C 2.929688 -1.382812 3.207031 -1.320312 3.59375 -1.3125 L 5.515625 -1.25 C 6.347656 -1.21875 6.960938 -1.019531 7.359375 -0.65625 C 7.753906 -0.300781 7.953125 0.195312 7.953125 0.84375 C 7.953125 1.332031 7.820312 1.769531 7.5625 2.15625 C 7.300781 2.550781 6.890625 2.863281 6.328125 3.09375 C 5.765625 3.332031 5.050781 3.453125 4.1875 3.453125 Z M 4.171875 -3.78125 C 4.742188 -3.78125 5.1875 -3.929688 5.5 -4.234375 C 5.820312 -4.535156 5.984375 -4.957031 5.984375 -5.5 C 5.984375 -6.0625 5.828125 -6.492188 5.515625 -6.796875 C 5.203125 -7.097656 4.753906 -7.25 4.171875 -7.25 C 3.585938 -7.25 3.144531 -7.097656 2.84375 -6.796875 C 2.539062 -6.492188 2.390625 -6.0625 2.390625 -5.5 C 2.390625 -4.957031 2.539062 -4.535156 2.84375 -4.234375 C 3.144531 -3.929688 3.585938 -3.78125 4.171875 -3.78125 Z M 4.1875 2.421875 C 4.78125 2.421875 5.269531 2.351562 5.65625 2.21875 C 6.039062 2.082031 6.316406 1.90625 6.484375 1.6875 C 6.648438 1.46875 6.734375 1.222656 6.734375 0.953125 C 6.734375 0.710938 6.6875 0.519531 6.59375 0.375 C 6.5 0.226562 6.351562 0.117188 6.15625 0.046875 C 5.957031 -0.0234375 5.679688 -0.0703125 5.328125 -0.09375 L 3.515625 -0.1875 L 3.25 -0.1875 C 2.226562 -0.164062 1.71875 0.226562 1.71875 1 C 1.71875 1.945312 2.539062 2.421875 4.1875 2.421875 Z M 4.1875 2.421875 "/></g></g></g><g fill="#fb8a22" fill-opacity="1"><g transform="translate(59.386441, 15.444288)"><g/></g></g><g fill="#fb8a22" fill-opacity="1"><g transform="translate(63.719633, 15.444288)"><g><path d="M 4.703125 0.15625 C 4.023438 0.15625 3.414062 0.0664062 2.875 -0.109375 C 2.34375 -0.296875 1.894531 -0.539062 1.53125 -0.84375 C 1.175781 -1.144531 0.910156 -1.472656 0.734375 -1.828125 L 1.4375 -2.671875 L 1.609375 -2.671875 C 2.273438 -1.546875 3.304688 -0.984375 4.703125 -0.984375 C 5.515625 -0.984375 6.117188 -1.148438 6.515625 -1.484375 C 6.910156 -1.828125 7.109375 -2.300781 7.109375 -2.90625 C 7.109375 -3.257812 7.039062 -3.554688 6.90625 -3.796875 C 6.78125 -4.046875 6.566406 -4.257812 6.265625 -4.4375 C 5.972656 -4.613281 5.566406 -4.765625 5.046875 -4.890625 L 3.78125 -5.203125 C 2.84375 -5.429688 2.148438 -5.789062 1.703125 -6.28125 C 1.265625 -6.78125 1.046875 -7.40625 1.046875 -8.15625 C 1.046875 -8.695312 1.179688 -9.175781 1.453125 -9.59375 C 1.734375 -10.007812 2.140625 -10.335938 2.671875 -10.578125 C 3.203125 -10.816406 3.832031 -10.9375 4.5625 -10.9375 C 5.375 -10.9375 6.054688 -10.820312 6.609375 -10.59375 C 7.171875 -10.363281 7.617188 -10.019531 7.953125 -9.5625 L 7.34375 -8.71875 L 7.15625 -8.71875 C 6.84375 -9.101562 6.472656 -9.382812 6.046875 -9.5625 C 5.628906 -9.738281 5.132812 -9.828125 4.5625 -9.828125 C 3.820312 -9.828125 3.257812 -9.679688 2.875 -9.390625 C 2.5 -9.097656 2.3125 -8.695312 2.3125 -8.1875 C 2.3125 -7.695312 2.445312 -7.304688 2.71875 -7.015625 C 3 -6.734375 3.472656 -6.515625 4.140625 -6.359375 L 5.4375 -6.046875 C 6.476562 -5.804688 7.234375 -5.429688 7.703125 -4.921875 C 8.171875 -4.410156 8.40625 -3.757812 8.40625 -2.96875 C 8.40625 -2.363281 8.269531 -1.828125 8 -1.359375 C 7.726562 -0.890625 7.3125 -0.519531 6.75 -0.25 C 6.195312 0.0195312 5.515625 0.15625 4.703125 0.15625 Z M 4.703125 0.15625 "/></g></g></g><g fill="#fb8a22" fill-opacity="1"><g transform="translate(73.586625, 15.444288)"><g><path d="M 2.015625 -9.703125 C 1.765625 -9.703125 1.554688 -9.78125 1.390625 -9.9375 C 1.234375 -10.09375 1.15625 -10.296875 1.15625 -10.546875 C 1.15625 -10.796875 1.234375 -11 1.390625 -11.15625 C 1.554688 -11.3125 1.765625 -11.390625 2.015625 -11.390625 C 2.273438 -11.390625 2.484375 -11.3125 2.640625 -11.15625 C 2.796875 -11 2.875 -10.796875 2.875 -10.546875 C 2.875 -10.296875 2.796875 -10.09375 2.640625 -9.9375 C 2.484375 -9.78125 2.273438 -9.703125 2.015625 -9.703125 Z M 1.421875 0 L 1.421875 -8.125 L 2.609375 -8.125 L 2.609375 0 Z M 1.421875 0 "/></g></g></g><g fill="#fb8a22" fill-opacity="1"><g transform="translate(78.251403, 15.444288)"><g><path d="M 1.421875 0 L 1.421875 -8.125 L 2.5625 -8.125 L 2.5625 -6.921875 L 2.71875 -6.890625 C 2.988281 -7.347656 3.316406 -7.691406 3.703125 -7.921875 C 4.097656 -8.160156 4.566406 -8.28125 5.109375 -8.28125 C 5.742188 -8.28125 6.234375 -8.160156 6.578125 -7.921875 C 6.921875 -7.679688 7.1875 -7.296875 7.375 -6.765625 L 7.53125 -6.765625 C 7.8125 -7.265625 8.15625 -7.640625 8.5625 -7.890625 C 8.976562 -8.148438 9.484375 -8.28125 10.078125 -8.28125 C 10.910156 -8.28125 11.53125 -8.050781 11.9375 -7.59375 C 12.351562 -7.144531 12.5625 -6.460938 12.5625 -5.546875 L 12.5625 0 L 11.359375 0 L 11.359375 -5.515625 C 11.359375 -6.097656 11.234375 -6.53125 10.984375 -6.8125 C 10.742188 -7.09375 10.347656 -7.234375 9.796875 -7.234375 C 9.148438 -7.234375 8.617188 -7 8.203125 -6.53125 C 7.796875 -6.0625 7.59375 -5.285156 7.59375 -4.203125 L 7.59375 0 L 6.390625 0 L 6.390625 -5.515625 C 6.390625 -6.097656 6.265625 -6.53125 6.015625 -6.8125 C 5.765625 -7.09375 5.363281 -7.234375 4.8125 -7.234375 C 4.164062 -7.234375 3.632812 -7.003906 3.21875 -6.546875 C 2.8125 -6.085938 2.609375 -5.347656 2.609375 -4.328125 L 2.609375 0 Z M 1.421875 0 "/></g></g></g><g fill="#fb8a22" fill-opacity="1"><g transform="translate(92.738493, 15.444288)"><g><path d="M 1.421875 3.296875 L 1.421875 -8.125 L 2.609375 -8.125 L 2.609375 -6.90625 L 2.765625 -6.890625 C 3.367188 -7.816406 4.257812 -8.28125 5.4375 -8.28125 C 6.113281 -8.28125 6.703125 -8.125 7.203125 -7.8125 C 7.710938 -7.507812 8.109375 -7.039062 8.390625 -6.40625 C 8.671875 -5.78125 8.8125 -5 8.8125 -4.0625 C 8.8125 -3.132812 8.660156 -2.351562 8.359375 -1.71875 C 8.066406 -1.09375 7.660156 -0.625 7.140625 -0.3125 C 6.617188 0 6.019531 0.15625 5.34375 0.15625 C 4.789062 0.15625 4.300781 0.0625 3.875 -0.125 C 3.445312 -0.320312 3.078125 -0.640625 2.765625 -1.078125 L 2.609375 -1.046875 L 2.609375 3.296875 Z M 5.078125 -0.921875 C 6.722656 -0.921875 7.546875 -1.96875 7.546875 -4.0625 C 7.546875 -6.15625 6.722656 -7.203125 5.078125 -7.203125 C 4.597656 -7.203125 4.171875 -7.09375 3.796875 -6.875 C 3.429688 -6.65625 3.140625 -6.3125 2.921875 -5.84375 C 2.710938 -5.375 2.609375 -4.78125 2.609375 -4.0625 C 2.609375 -3.351562 2.710938 -2.757812 2.921875 -2.28125 C 3.140625 -1.8125 3.429688 -1.46875 3.796875 -1.25 C 4.171875 -1.03125 4.597656 -0.921875 5.078125 -0.921875 Z M 5.078125 -0.921875 "/></g></g></g><g fill="#fb8a22" fill-opacity="1"><g transform="translate(103.069706, 15.444288)"><g><path d="M 3.234375 0.15625 C 2.660156 0.15625 2.207031 -0.00390625 1.875 -0.328125 C 1.550781 -0.660156 1.390625 -1.148438 1.390625 -1.796875 L 1.390625 -11.390625 L 2.59375 -11.390625 L 2.59375 -1.875 C 2.59375 -1.539062 2.65625 -1.296875 2.78125 -1.140625 C 2.914062 -0.992188 3.117188 -0.921875 3.390625 -0.921875 C 3.554688 -0.921875 3.726562 -0.945312 3.90625 -1 L 4 -0.96875 L 4.140625 -0.03125 C 4.054688 0.03125 3.929688 0.078125 3.765625 0.109375 C 3.597656 0.140625 3.421875 0.15625 3.234375 0.15625 Z M 3.234375 0.15625 "/></g></g></g><g fill="#fb8a22" fill-opacity="1"><g transform="translate(108.125018, 15.444288)"><g><path d="M 2.015625 -9.703125 C 1.765625 -9.703125 1.554688 -9.78125 1.390625 -9.9375 C 1.234375 -10.09375 1.15625 -10.296875 1.15625 -10.546875 C 1.15625 -10.796875 1.234375 -11 1.390625 -11.15625 C 1.554688 -11.3125 1.765625 -11.390625 2.015625 -11.390625 C 2.273438 -11.390625 2.484375 -11.3125 2.640625 -11.15625 C 2.796875 -11 2.875 -10.796875 2.875 -10.546875 C 2.875 -10.296875 2.796875 -10.09375 2.640625 -9.9375 C 2.484375 -9.78125 2.273438 -9.703125 2.015625 -9.703125 Z M 1.421875 0 L 1.421875 -8.125 L 2.609375 -8.125 L 2.609375 0 Z M 1.421875 0 "/></g></g></g><g fill="#fb8a22" fill-opacity="1"><g transform="translate(112.789796, 15.444288)"><g><path d="M 4.671875 0.15625 C 3.953125 0.15625 3.304688 -0.00390625 2.734375 -0.328125 C 2.160156 -0.660156 1.707031 -1.144531 1.375 -1.78125 C 1.050781 -2.414062 0.890625 -3.175781 0.890625 -4.0625 C 0.890625 -4.945312 1.050781 -5.707031 1.375 -6.34375 C 1.707031 -6.976562 2.160156 -7.457031 2.734375 -7.78125 C 3.304688 -8.113281 3.953125 -8.28125 4.671875 -8.28125 C 5.523438 -8.28125 6.207031 -8.117188 6.71875 -7.796875 C 7.226562 -7.472656 7.59375 -7.039062 7.8125 -6.5 L 7 -5.90625 L 6.859375 -5.90625 C 6.628906 -6.351562 6.34375 -6.679688 6 -6.890625 C 5.65625 -7.097656 5.210938 -7.203125 4.671875 -7.203125 C 4.160156 -7.203125 3.71875 -7.082031 3.34375 -6.84375 C 2.96875 -6.613281 2.675781 -6.257812 2.46875 -5.78125 C 2.257812 -5.3125 2.15625 -4.738281 2.15625 -4.0625 C 2.15625 -3.382812 2.257812 -2.8125 2.46875 -2.34375 C 2.675781 -1.875 2.96875 -1.519531 3.34375 -1.28125 C 3.71875 -1.039062 4.160156 -0.921875 4.671875 -0.921875 C 5.234375 -0.921875 5.695312 -1.046875 6.0625 -1.296875 C 6.4375 -1.554688 6.726562 -1.960938 6.9375 -2.515625 L 7.09375 -2.515625 L 7.890625 -2.046875 C 7.671875 -1.367188 7.289062 -0.832031 6.75 -0.4375 C 6.207031 -0.0390625 5.515625 0.15625 4.671875 0.15625 Z M 4.671875 0.15625 "/></g></g></g><g fill="#fb8a22" fill-opacity="1"><g transform="translate(121.802034, 15.444288)"><g><path d="M 2.015625 -9.703125 C 1.765625 -9.703125 1.554688 -9.78125 1.390625 -9.9375 C 1.234375 -10.09375 1.15625 -10.296875 1.15625 -10.546875 C 1.15625 -10.796875 1.234375 -11 1.390625 -11.15625 C 1.554688 -11.3125 1.765625 -11.390625 2.015625 -11.390625 C 2.273438 -11.390625 2.484375 -11.3125 2.640625 -11.15625 C 2.796875 -11 2.875 -10.796875 2.875 -10.546875 C 2.875 -10.296875 2.796875 -10.09375 2.640625 -9.9375 C 2.484375 -9.78125 2.273438 -9.703125 2.015625 -9.703125 Z M 1.421875 0 L 1.421875 -8.125 L 2.609375 -8.125 L 2.609375 0 Z M 1.421875 0 "/></g></g></g><g fill="#fb8a22" fill-opacity="1"><g transform="translate(126.466811, 15.444288)"><g><path d="M 5.5 -1.296875 L 5.875 -0.421875 C 5.6875 -0.234375 5.4375 -0.09375 5.125 0 C 4.8125 0.101562 4.472656 0.15625 4.109375 0.15625 C 2.554688 0.15625 1.78125 -0.628906 1.78125 -2.203125 L 1.78125 -7.15625 L 0.375 -7.15625 L 0.375 -8.140625 L 1.78125 -8.140625 L 1.78125 -9.859375 L 2.984375 -10.046875 L 2.984375 -8.140625 L 5.59375 -8.140625 L 5.59375 -7.15625 L 2.984375 -7.15625 L 2.984375 -2.328125 C 2.984375 -1.390625 3.390625 -0.921875 4.203125 -0.921875 C 4.640625 -0.921875 5.019531 -1.046875 5.34375 -1.296875 Z M 5.5 -1.296875 "/></g></g></g><g fill="#fb8a22" fill-opacity="1"><g transform="translate(133.290582, 15.444288)"><g><path d="M 1.625 3.453125 C 1.351562 3.453125 1.097656 3.425781 0.859375 3.375 C 0.617188 3.332031 0.414062 3.269531 0.25 3.1875 L 0.46875 2.234375 L 0.59375 2.1875 C 0.71875 2.25 0.863281 2.300781 1.03125 2.34375 C 1.207031 2.382812 1.390625 2.40625 1.578125 2.40625 C 1.910156 2.40625 2.1875 2.359375 2.40625 2.265625 C 2.625 2.179688 2.804688 2.035156 2.953125 1.828125 C 3.109375 1.628906 3.253906 1.347656 3.390625 0.984375 L 3.671875 0.1875 L 0.40625 -8.125 L 1.703125 -8.125 L 4.265625 -1.5 L 4.40625 -1.5 L 6.890625 -8.125 L 8.109375 -8.125 L 4.484375 1.28125 C 4.273438 1.800781 4.039062 2.21875 3.78125 2.53125 C 3.53125 2.84375 3.226562 3.070312 2.875 3.21875 C 2.53125 3.375 2.113281 3.453125 1.625 3.453125 Z M 1.625 3.453125 "/></g></g></g></g></g></svg>