<svg width="49" height="48" viewBox="0 0 49 48" fill="none" xmlns="http://www.w3.org/2000/svg">
<circle cx="24.2607" cy="24" r="24" fill="#FB8A22"/>
<path fill-rule="evenodd" clip-rule="evenodd" d="M23.7616 15.2997H26.2341C26.316 15.2997 26.3946 15.332 26.4525 15.3895C26.5104 15.447 26.5429 15.525 26.5429 15.6063C26.5429 18.3782 29.5668 20.1122 31.9852 18.7247C32.0558 18.6851 32.1393 18.6746 32.2176 18.6955C32.2959 18.7165 32.3627 18.7672 32.4037 18.8366L33.6423 20.9646C33.6827 21.0348 33.6935 21.118 33.6724 21.1961C33.6513 21.2743 33.5999 21.3409 33.5296 21.3816C31.1111 22.7676 31.1111 26.2324 33.5296 27.6199C33.5995 27.6606 33.6506 27.727 33.6717 27.8047C33.6928 27.8825 33.6822 27.9653 33.6423 28.0354L32.4037 30.1634C32.3627 30.2328 32.2959 30.2835 32.2176 30.3045C32.1393 30.3254 32.0558 30.3149 31.9852 30.2753C29.5668 28.8878 26.5429 30.6203 26.5429 33.3906C26.5429 33.4717 26.5106 33.5494 26.453 33.6069C26.3954 33.6644 26.3173 33.6968 26.2356 33.6972H23.7631C23.6812 33.6972 23.6026 33.6649 23.5447 33.6074C23.4868 33.5499 23.4543 33.4719 23.4543 33.3906C23.4543 30.6187 20.4304 28.8863 18.012 30.2722C17.9412 30.3123 17.8574 30.3231 17.7787 30.3021C17.7001 30.2812 17.6329 30.2302 17.5919 30.1603L16.3564 28.0323C16.3164 27.9624 16.3056 27.8797 16.3264 27.802C16.3472 27.7243 16.3979 27.6578 16.4676 27.6169C18.8861 26.2294 18.8861 22.7645 16.4676 21.377C16.3981 21.3363 16.3473 21.2702 16.3263 21.1929C16.3052 21.1155 16.3155 21.033 16.3549 20.9631L17.5919 18.8336C17.6332 18.7639 17.7004 18.7133 17.7791 18.6926C17.8577 18.672 17.9414 18.6829 18.012 18.7232C20.4304 20.1107 23.4543 18.3767 23.4543 15.6048C23.4543 15.4361 23.5917 15.2997 23.7616 15.2997ZM21.1377 15.6063C21.1377 14.1652 22.3114 13 23.7616 13H26.2341C27.6858 13 28.8595 14.1652 28.8595 15.6063C28.8599 15.8347 28.9208 16.059 29.0361 16.2566C29.1513 16.4543 29.3169 16.6184 29.5162 16.7325C29.7154 16.8466 29.9414 16.9068 30.1715 16.9069C30.4015 16.907 30.6276 16.8471 30.827 16.7332C31.4296 16.3886 32.1454 16.2955 32.8171 16.4743C33.4888 16.6531 34.0616 17.0891 34.4098 17.6868L35.6484 19.8148C36.3727 21.0612 35.9418 22.6526 34.6878 23.3716C34.4884 23.486 34.3227 23.6505 34.2076 23.8486C34.0924 24.0466 34.0318 24.2713 34.0318 24.5C34.0318 24.7287 34.0924 24.9534 34.2076 25.1514C34.3227 25.3495 34.4884 25.514 34.6878 25.6284C35.2898 25.9741 35.7291 26.5427 35.9092 27.2096C36.0893 27.8764 35.9955 28.587 35.6484 29.1852L34.4098 31.3132C34.0616 31.9109 33.4888 32.3469 32.8171 32.5257C32.1454 32.7045 31.4296 32.6114 30.827 32.2668C30.6276 32.1529 30.4015 32.093 30.1715 32.0931C29.9414 32.0932 29.7154 32.1534 29.5162 32.2675C29.3169 32.3816 29.1513 32.5457 29.0361 32.7434C28.9208 32.941 28.8599 33.1653 28.8595 33.3937C28.8595 34.8333 27.6858 36 26.2356 36H23.7631C23.0671 35.9996 22.3997 35.7248 21.9077 35.2361C21.4157 34.7474 21.1393 34.0847 21.1393 33.3937C21.1388 33.1653 21.0779 32.941 20.9627 32.7434C20.8474 32.5457 20.6818 32.3816 20.4826 32.2675C20.2833 32.1534 20.0573 32.0932 19.8273 32.0931C19.5972 32.093 19.3712 32.1529 19.1718 32.2668C18.5691 32.6114 17.8534 32.7045 17.1817 32.5257C16.5099 32.3469 15.9371 31.9109 15.5889 31.3132L14.3503 29.1852C14.0033 28.587 13.9095 27.8764 14.0896 27.2096C14.2697 26.5427 14.7089 25.9741 15.3109 25.6284C15.51 25.5139 15.6753 25.3494 15.7902 25.1515C15.9051 24.9536 15.9656 24.7292 15.9656 24.5008C15.9656 24.2723 15.9051 24.0479 15.7902 23.85C15.6753 23.6521 15.51 23.4877 15.3109 23.3731C14.7089 23.0275 14.2697 22.4588 14.0896 21.792C13.9095 21.1251 14.0033 20.4146 14.3503 19.8163L15.5874 17.6868C15.9356 17.0891 16.5084 16.6531 17.1801 16.4743C17.8518 16.2955 18.5676 16.3886 19.1702 16.7332C19.3696 16.8471 19.5957 16.907 19.8257 16.9069C20.0558 16.9068 20.2818 16.8466 20.481 16.7325C20.6803 16.6184 20.8459 16.4543 20.9611 16.2566C21.0764 16.059 21.1373 15.8347 21.1377 15.6063ZM27.3151 24.4985C27.3151 25.1084 27.0711 25.6933 26.6366 26.1246C26.2022 26.5559 25.613 26.7982 24.9986 26.7982C24.3842 26.7982 23.795 26.5559 23.3606 26.1246C22.9261 25.6933 22.6821 25.1084 22.6821 24.4985C22.6821 23.8886 22.9261 23.3036 23.3606 22.8723C23.795 22.4411 24.3842 22.1988 24.9986 22.1988C25.613 22.1988 26.2022 22.4411 26.6366 22.8723C27.0711 23.3036 27.3151 23.8886 27.3151 24.4985ZM29.6316 24.4985C29.6316 25.7183 29.1435 26.8882 28.2747 27.7507C27.4058 28.6133 26.2274 29.0979 24.9986 29.0979C23.7698 29.0979 22.5914 28.6133 21.7225 27.7507C20.8537 26.8882 20.3656 25.7183 20.3656 24.4985C20.3656 23.2786 20.8537 22.1088 21.7225 21.2462C22.5914 20.3837 23.7698 19.8991 24.9986 19.8991C26.2274 19.8991 27.4058 20.3837 28.2747 21.2462C29.1435 22.1088 29.6316 23.2786 29.6316 24.4985Z" fill="white"/>
</svg>
