<svg width="49" height="48" viewBox="0 0 49 48" fill="none" xmlns="http://www.w3.org/2000/svg">
<circle cx="24.2314" cy="24" r="24" fill="#FB8A22"/>
<path d="M22.1792 27.9375C22.6391 28.3875 23.2332 28.608 23.9615 28.599C24.6898 28.59 25.2264 28.332 25.5714 27.825L32.0109 18.375L22.3516 24.675C21.8342 25.0125 21.5613 25.5281 21.5329 26.2219C21.5045 26.9156 21.72 27.4875 22.1792 27.9375ZM23.9615 15C25.0923 15 26.1801 15.1545 27.225 15.4635C28.2698 15.7725 29.2519 16.2368 30.171 16.8563L27.9862 18.2062C27.3538 17.8875 26.6975 17.6486 26.0176 17.4896C25.3376 17.3306 24.6522 17.2508 23.9615 17.25C21.4125 17.25 19.2419 18.1268 17.4496 19.8803C15.6572 21.6338 14.7615 23.757 14.7622 26.25C14.7622 27.0375 14.8726 27.8156 15.0934 28.5844C15.3142 29.3531 15.6254 30.075 16.0271 30.75H31.8959C32.3367 30.0375 32.6579 29.2969 32.8595 28.5281C33.0611 27.7594 33.1616 26.9625 33.1608 26.1375C33.1608 25.4625 33.0792 24.8062 32.9159 24.1687C32.7526 23.5312 32.5084 22.9125 32.1834 22.3125L33.5633 20.175C34.1382 21.0563 34.5936 21.9938 34.9294 22.9875C35.2651 23.9812 35.4422 25.0125 35.4606 26.0813C35.479 27.15 35.3545 28.1719 35.0869 29.1469C34.8194 30.1219 34.4265 31.05 33.9082 31.9312C33.6974 32.2687 33.41 32.5312 33.0458 32.7188C32.6817 32.9062 32.2984 33 31.8959 33H16.0271C15.6247 33 15.2414 32.9062 14.8772 32.7188C14.5131 32.5312 14.2256 32.2687 14.0148 31.9312C13.5165 31.0875 13.1332 30.1924 12.8649 29.2459C12.5966 28.2994 12.4624 27.3007 12.4624 26.25C12.4624 24.6938 12.7644 23.2361 13.3685 21.8771C13.9726 20.5181 14.7967 19.3275 15.8408 18.3053C16.885 17.283 18.1066 16.4768 19.5056 15.8865C20.9047 15.2963 22.39 15.0008 23.9615 15Z" fill="white"/>
</svg>
