<svg width="49" height="49" viewBox="0 0 49 49" fill="none" xmlns="http://www.w3.org/2000/svg">
<circle cx="24.5039" cy="24.3267" r="24" fill="#FB8A22"/>
<path d="M25.1473 17.2101L21.0636 20.4771C20.3844 21.0188 20.2536 21.9939 20.7683 22.6898C21.3125 23.4315 22.3714 23.5774 23.1012 23.0148L27.2905 19.7978C27.5858 19.5728 28.0077 19.6228 28.2397 19.9145C28.4717 20.2062 28.4169 20.6229 28.1216 20.8521L27.2398 21.5272L33.1039 26.861V18.9936H33.0744L32.9098 18.8894L29.847 16.9517C29.2016 16.5433 28.4464 16.3267 27.6786 16.3267C26.7589 16.3267 25.8645 16.6392 25.1473 17.2101ZM26.1092 22.3939L23.9281 24.0691C22.5992 25.0942 20.6712 24.8275 19.6756 23.4773C18.7391 22.2064 18.9753 20.4312 20.2114 19.4436L23.7214 16.6392C23.232 16.435 22.7047 16.3308 22.1689 16.3308C21.3758 16.3267 20.6038 16.56 19.9414 16.9934L16.9039 18.9936V28.3278H18.0936L21.9495 31.8031C22.7764 32.5491 24.0547 32.4907 24.8098 31.674C25.0419 31.4198 25.198 31.1239 25.2781 30.8156L25.9953 31.4656C26.818 32.2115 28.1005 32.1573 28.8556 31.3448C29.0455 31.1406 29.1847 30.9031 29.2733 30.6572C30.0917 31.1989 31.2055 31.0864 31.8931 30.3447C32.6483 29.5321 32.5934 28.2653 31.7708 27.5194L26.1092 22.3939ZM12.1789 18.9936C11.8077 18.9936 11.5039 19.2936 11.5039 19.6603V28.3278C11.5039 29.0654 12.1072 29.6613 12.8539 29.6613H14.2039C14.9506 29.6613 15.5539 29.0654 15.5539 28.3278V18.9936H12.1789ZM13.5289 26.9944C13.7079 26.9944 13.8796 27.0646 14.0062 27.1896C14.1328 27.3147 14.2039 27.4843 14.2039 27.6611C14.2039 27.8379 14.1328 28.0075 14.0062 28.1325C13.8796 28.2576 13.7079 28.3278 13.5289 28.3278C13.3499 28.3278 13.1782 28.2576 13.0516 28.1325C12.925 28.0075 12.8539 27.8379 12.8539 27.6611C12.8539 27.4843 12.925 27.3147 13.0516 27.1896C13.1782 27.0646 13.3499 26.9944 13.5289 26.9944ZM34.4539 18.9936V28.3278C34.4539 29.0654 35.0572 29.6613 35.8039 29.6613H37.1539C37.9006 29.6613 38.5039 29.0654 38.5039 28.3278V19.6603C38.5039 19.2936 38.2002 18.9936 37.8289 18.9936H34.4539ZM35.8039 27.6611C35.8039 27.4843 35.875 27.3147 36.0016 27.1896C36.1282 27.0646 36.2999 26.9944 36.4789 26.9944C36.6579 26.9944 36.8296 27.0646 36.9562 27.1896C37.0828 27.3147 37.1539 27.4843 37.1539 27.6611C37.1539 27.8379 37.0828 28.0075 36.9562 28.1325C36.8296 28.2576 36.6579 28.3278 36.4789 28.3278C36.2999 28.3278 36.1282 28.2576 36.0016 28.1325C35.875 28.0075 35.8039 27.8379 35.8039 27.6611Z" fill="white"/>
</svg>
